<svg width="18" height="18" viewBox="0 0 18 18" fill="none" xmlns="http://www.w3.org/2000/svg">
<path fill-rule="evenodd" clip-rule="evenodd" d="M7.70499 8.70663L0.207446 1.20908C-0.0691483 0.93249 -0.0691485 0.484041 0.207446 0.207446C0.484041 -0.0691485 0.932489 -0.0691489 1.20908 0.207446L8.70663 7.70499L16.2042 0.207446C16.4808 -0.0691485 16.9292 -0.0691486 17.2058 0.207446C17.4824 0.484041 17.4824 0.93249 17.2058 1.20908L9.70826 8.70663L17.2058 16.2042C17.4824 16.4808 17.4824 16.9292 17.2058 17.2058C16.9292 17.4824 16.4808 17.4824 16.2042 17.2058L8.70663 9.70826L1.20908 17.2058C0.93249 17.4824 0.484041 17.4824 0.207446 17.2058C-0.0691486 16.9292 -0.0691487 16.4808 0.207446 16.2042L7.70499 8.70663Z" fill="#504D58"/>
</svg>
