<svg width="18" height="18" viewBox="0 0 18 18" fill="none" xmlns="http://www.w3.org/2000/svg">
<path d="M14.4828 10.3793H10.3793V14.4828M16.8276 10.3793H18M14.4828 17.4138H9.7931M13.3103 13.8966H17.4138V18M3.93103 4.51724H5.10345M13.3103 4.51724H14.4828M3.93103 13.8966H5.10345M2.17241 1H6.86207C7.50958 1 8.03448 1.52491 8.03448 2.17241V6.86207C8.03448 7.50958 7.50958 8.03448 6.86207 8.03448H2.17241C1.52491 8.03448 1 7.50958 1 6.86207V2.17241C1 1.52491 1.52491 1 2.17241 1ZM11.5517 1H16.2414C16.8889 1 17.4138 1.52491 17.4138 2.17241V6.86207C17.4138 7.50958 16.8889 8.03448 16.2414 8.03448H11.5517C10.9042 8.03448 10.3793 7.50958 10.3793 6.86207V2.17241C10.3793 1.52491 10.9042 1 11.5517 1ZM2.17241 10.3793H6.86207C7.50958 10.3793 8.03448 10.9042 8.03448 11.5517V16.2414C8.03448 16.8889 7.50958 17.4138 6.86207 17.4138H2.17241C1.52491 17.4138 1 16.8889 1 16.2414V11.5517C1 10.9042 1.52491 10.3793 2.17241 10.3793Z" stroke="white"/>
</svg>
