<svg width="22" height="22" viewBox="0 0 22 22" fill="none" xmlns="http://www.w3.org/2000/svg">
<path d="M11 1L11.4881 0.430558C11.2072 0.189814 10.7928 0.189814 10.5119 0.430558L11 1ZM1 9.57143L0.511906 9.00199L0.25 9.22648V9.57143H1ZM8.14286 21V21.75C8.55707 21.75 8.89286 21.4142 8.89286 21H8.14286ZM13.8571 21H13.1071C13.1071 21.4142 13.4429 21.75 13.8571 21.75V21ZM21 9.57143H21.75V9.22648L21.4881 9.00199L21 9.57143ZM2.42857 21.75H8.14286V20.25H2.42857V21.75ZM21.4881 9.00199L11.4881 0.430558L10.5119 1.56944L20.5119 10.1409L21.4881 9.00199ZM10.5119 0.430558L0.511906 9.00199L1.48809 10.1409L11.4881 1.56944L10.5119 0.430558ZM8.89286 21V16.7143H7.39286V21H8.89286ZM13.1071 16.7143V21H14.6071V16.7143H13.1071ZM13.8571 21.75H19.5714V20.25H13.8571V21.75ZM21.75 19.5714V9.57143H20.25V19.5714H21.75ZM0.25 9.57143V19.5714H1.75V9.57143H0.25ZM11 14.6071C12.1637 14.6071 13.1071 15.5505 13.1071 16.7143H14.6071C14.6071 14.7221 12.9922 13.1071 11 13.1071V14.6071ZM11 13.1071C9.00783 13.1071 7.39286 14.7221 7.39286 16.7143H8.89286C8.89286 15.5505 9.83626 14.6071 11 14.6071V13.1071ZM19.5714 21.75C20.7746 21.75 21.75 20.7746 21.75 19.5714H20.25C20.25 19.9462 19.9462 20.25 19.5714 20.25V21.75ZM2.42857 20.25C2.05381 20.25 1.75 19.9462 1.75 19.5714H0.25C0.25 20.7746 1.22538 21.75 2.42857 21.75V20.25Z" fill="#B25A42"/>
</svg>
