<svg width="12" height="13" viewBox="0 0 12 13" fill="none" xmlns="http://www.w3.org/2000/svg">
<path d="M5.4 5.98601C5.4 5.65464 5.66863 5.38601 6 5.38601C6.33137 5.38601 6.6 5.65464 6.6 5.98601V9.58601C6.6 9.91738 6.33137 10.186 6 10.186C5.66863 10.186 5.4 9.91738 5.4 9.58601V5.98601Z" fill="#8D8D8D"/>
<path d="M6 3.02908C5.66863 3.02908 5.4 3.29771 5.4 3.62908C5.4 3.96045 5.66863 4.22908 6 4.22908C6.33137 4.22908 6.6 3.96045 6.6 3.62908C6.6 3.29771 6.33137 3.02908 6 3.02908Z" fill="#8D8D8D"/>
<path fill-rule="evenodd" clip-rule="evenodd" d="M6 0.598389C2.68629 0.598389 0 3.28468 0 6.59839C0 9.9121 2.68629 12.5984 6 12.5984C9.31371 12.5984 12 9.9121 12 6.59839C12 3.28468 9.31371 0.598389 6 0.598389ZM1.2 6.59839C1.2 9.24936 3.34903 11.3984 6 11.3984C8.65097 11.3984 10.8 9.24936 10.8 6.59839C10.8 3.94742 8.65097 1.79839 6 1.79839C3.34903 1.79839 1.2 3.94742 1.2 6.59839Z" fill="#8D8D8D"/>
</svg>
