<svg width="19" height="20" viewBox="0 0 19 20" fill="none" xmlns="http://www.w3.org/2000/svg">
<path d="M6.6127 11.25H4.98932C4.72146 11.25 4.50231 11.0391 4.50231 10.7812V9.21875C4.50231 8.96094 4.72146 8.75 4.98932 8.75H6.6127C6.88055 8.75 7.09971 8.96094 7.09971 9.21875V10.7812C7.09971 11.0391 6.88055 11.25 6.6127 11.25ZM10.9958 10.7812V9.21875C10.9958 8.96094 10.7767 8.75 10.5088 8.75H8.88542C8.61757 8.75 8.39841 8.96094 8.39841 9.21875V10.7812C8.39841 11.0391 8.61757 11.25 8.88542 11.25H10.5088C10.7767 11.25 10.9958 11.0391 10.9958 10.7812ZM14.8919 10.7812V9.21875C14.8919 8.96094 14.6728 8.75 14.4049 8.75H12.7815C12.5137 8.75 12.2945 8.96094 12.2945 9.21875V10.7812C12.2945 11.0391 12.5137 11.25 12.7815 11.25H14.4049C14.6728 11.25 14.8919 11.0391 14.8919 10.7812ZM10.9958 14.5312V12.9688C10.9958 12.7109 10.7767 12.5 10.5088 12.5H8.88542C8.61757 12.5 8.39841 12.7109 8.39841 12.9688V14.5312C8.39841 14.7891 8.61757 15 8.88542 15H10.5088C10.7767 15 10.9958 14.7891 10.9958 14.5312ZM7.09971 14.5312V12.9688C7.09971 12.7109 6.88055 12.5 6.6127 12.5H4.98932C4.72146 12.5 4.50231 12.7109 4.50231 12.9688V14.5312C4.50231 14.7891 4.72146 15 4.98932 15H6.6127C6.88055 15 7.09971 14.7891 7.09971 14.5312ZM14.8919 14.5312V12.9688C14.8919 12.7109 14.6728 12.5 14.4049 12.5H12.7815C12.5137 12.5 12.2945 12.7109 12.2945 12.9688V14.5312C12.2945 14.7891 12.5137 15 12.7815 15H14.4049C14.6728 15 14.8919 14.7891 14.8919 14.5312ZM18.788 4.375V18.125C18.788 19.1602 17.9155 20 16.84 20H2.55425C1.47877 20 0.606201 19.1602 0.606201 18.125V4.375C0.606201 3.33984 1.47877 2.5 2.55425 2.5H4.50231V0.46875C4.50231 0.210938 4.72146 0 4.98932 0H6.6127C6.88055 0 7.09971 0.210938 7.09971 0.46875V2.5H12.2945V0.46875C12.2945 0.210938 12.5137 0 12.7815 0H14.4049C14.6728 0 14.8919 0.210938 14.8919 0.46875V2.5H16.84C17.9155 2.5 18.788 3.33984 18.788 4.375ZM16.84 17.8906V6.25H2.55425V17.8906C2.55425 18.0195 2.66383 18.125 2.79776 18.125H16.5965C16.7304 18.125 16.84 18.0195 16.84 17.8906Z" fill="#666666"/>
</svg>
