<svg width="24" height="25" viewBox="0 0 24 25" fill="none" xmlns="http://www.w3.org/2000/svg">
<path d="M4.10303 7.5H13.103" stroke="#222722" stroke-width="1.2" stroke-miterlimit="10" stroke-linecap="round" stroke-linejoin="round"/>
<path d="M4.10303 12.5H13.103" stroke="#222722" stroke-width="1.2" stroke-miterlimit="10" stroke-linecap="round" stroke-linejoin="round"/>
<path d="M4.10303 17.5H13.103" stroke="#222722" stroke-width="1.2" stroke-miterlimit="10" stroke-linecap="round" stroke-linejoin="round"/>
<path d="M19.603 1H16.603H15.603H12.603H7.60303H3.60303C1.94303 1 0.603027 2.34 0.603027 4V24L2.60303 22L4.60303 24L6.60303 22L8.56305 24L10.603 22L12.603 24L14.603 22L16.603 24V6V4" stroke="#222722" stroke-width="1.2" stroke-miterlimit="10" stroke-linecap="round" stroke-linejoin="round"/>
<path d="M22.603 4V6H16.603V4C16.603 3.11 16.983 2.31002 17.603 1.77002C18.133 1.29002 18.833 1 19.603 1C21.263 1 22.603 2.34 22.603 4Z" stroke="#222722" stroke-width="1.2" stroke-miterlimit="10" stroke-linecap="round" stroke-linejoin="round"/>
</svg>
