<svg width="19" height="19" viewBox="0 0 19 19" fill="none" xmlns="http://www.w3.org/2000/svg">
<path d="M11.5502 17.4994V12.9993C11.5502 12.8004 11.4712 12.6096 11.3306 12.469C11.1899 12.3283 10.9991 12.2493 10.8002 12.2493H7.80023C7.60132 12.2493 7.41055 12.3283 7.2699 12.469C7.12925 12.6096 7.05023 12.8004 7.05023 12.9993V17.4994C7.05023 17.6983 6.97123 17.889 6.83059 18.0297C6.68996 18.1703 6.49922 18.2494 6.30033 18.2494L1.80087 18.25C1.70238 18.25 1.60484 18.2306 1.51383 18.1929C1.42283 18.1552 1.34014 18.1 1.27048 18.0304C1.20083 17.9607 1.14558 17.878 1.10788 17.787C1.07018 17.696 1.05078 17.5985 1.05078 17.5V8.83183C1.05078 8.72734 1.07261 8.624 1.11488 8.52844C1.15715 8.43288 1.21892 8.34721 1.29623 8.27691L8.79571 1.45803C8.93377 1.3325 9.11365 1.26295 9.30024 1.26294C9.48683 1.26293 9.66672 1.33248 9.80478 1.45799L17.3053 8.27691C17.3826 8.3472 17.4444 8.43288 17.4867 8.52845C17.5289 8.62401 17.5508 8.72736 17.5508 8.83186V17.5C17.5508 17.5985 17.5314 17.696 17.4937 17.787C17.456 17.878 17.4007 17.9607 17.3311 18.0304C17.2614 18.1 17.1787 18.1552 17.0877 18.1929C16.9967 18.2306 16.8992 18.25 16.8007 18.25L12.3001 18.2494C12.1012 18.2494 11.9105 18.1703 11.7699 18.0297C11.6292 17.889 11.5502 17.6983 11.5502 17.4994V17.4994Z" stroke="#A4A4A4" stroke-linecap="round" stroke-linejoin="round"/>
</svg>
