<svg width="19" height="19" viewBox="0 0 19 19" fill="none" xmlns="http://www.w3.org/2000/svg">
<path d="M18.0092 7.72189L10.5086 0.902903C10.233 0.650631 9.87303 0.510717 9.49948 0.510742C9.12592 0.510768 8.76593 0.65073 8.49046 0.90304L0.991098 7.72184C0.836592 7.86254 0.713125 8.03392 0.628584 8.22502C0.544042 8.41613 0.500283 8.62276 0.500101 8.83173V17.4657C0.495799 17.8426 0.629535 18.2081 0.8761 18.4933C1.01657 18.653 1.18954 18.7808 1.38342 18.8682C1.57731 18.9555 1.78763 19.0004 2.00029 18.9999H6.4968C6.69572 18.9999 6.88648 18.9209 7.02713 18.7802C7.16779 18.6396 7.2468 18.4488 7.2468 18.2499V13.7492C7.2468 13.5503 7.32582 13.3595 7.46647 13.2189C7.60713 13.0782 7.79789 12.9992 7.9968 12.9992H10.9968C11.1957 12.9992 11.3865 13.0782 11.5271 13.2189C11.6678 13.3595 11.7468 13.5503 11.7468 13.7492V18.2499C11.7468 18.4488 11.8258 18.6396 11.9665 18.7802C12.1071 18.9209 12.2979 18.9999 12.4968 18.9999H17.0022C17.2486 19.0031 17.4918 18.9432 17.7085 18.8259C17.9477 18.6968 18.1476 18.5054 18.2869 18.2719C18.4263 18.0385 18.4999 17.7718 18.5001 17.4999V8.83178C18.4999 8.62282 18.4561 8.41619 18.3716 8.22509C18.2871 8.03399 18.1637 7.86261 18.0092 7.72189Z" fill="#CC6047"/>
</svg>
