<svg width="25" height="25" viewBox="0 0 25 25" fill="none" xmlns="http://www.w3.org/2000/svg">
<path d="M10.1635 17.4443H14.8364M12.4999 3.44434V4.44434M18.8639 6.08038L18.1568 6.78748M21.5 12.4443H20.5M4.5 12.4443H3.5M6.84309 6.78748L6.13599 6.08037M8.96441 15.9799C7.01179 14.0273 7.01179 10.8614 8.96441 8.90882C10.917 6.9562 14.0829 6.9562 16.0355 8.90882C17.9881 10.8614 17.9881 14.0273 16.0355 15.9799L15.4884 16.527C14.8555 17.1599 14.4999 18.0183 14.4999 18.9133V19.4443C14.4999 20.5489 13.6045 21.4443 12.4999 21.4443C11.3954 21.4443 10.4999 20.5489 10.4999 19.4443V18.9133C10.4999 18.0183 10.1444 17.1599 9.51151 16.527L8.96441 15.9799Z" stroke="#4C4C4C" stroke-linecap="round" stroke-linejoin="round"/>
</svg>
