<svg width="151" height="22" viewBox="0 0 151 22" fill="none" xmlns="http://www.w3.org/2000/svg">
<path d="M7.67644 7.14378H11.3284V9.21589H18.5V0H0.5V22H18.5V13.0111H11.3284V14.8562H7.67644V7.14378ZM13.0906 1.78655H16.7426V7.42689H13.0906V1.78655ZM13.0906 14.8001H16.7426V20.2159H13.0906V14.8001ZM11.3308 16.6452V20.2159H7.67884V16.6452H11.3308ZM5.91899 20.2159H2.26225V14.5731H5.91899V20.2159ZM5.91899 12.7866H2.26225V9.21589H5.91899V12.7866ZM5.91899 7.42933H2.26225V1.78655H5.91899V7.42689V7.42933ZM7.67884 5.35966V1.78655H11.3308V5.35722H7.67884V5.35966Z" fill="#C26441"/>
<path d="M36.9499 14.8982L37.8877 16.2193C36.6879 17.2047 35.1415 17.7852 33.398 17.7852C29.5083 17.7852 26.5 14.8224 26.5 10.9998C26.5 7.17715 29.5083 4.21436 33.398 4.21436C35.0657 4.21436 36.5189 4.73847 37.7274 5.6676L36.8373 6.99956C35.8172 6.28701 34.7668 5.77155 33.398 5.77155C30.5479 5.77155 28.2889 8.06729 28.2889 11.0019C28.2889 13.9366 30.5479 16.2323 33.398 16.2323C34.7581 16.2323 36.0035 15.68 36.9499 14.9004V14.8982Z" fill="white"/>
<path d="M40.1357 4.4375H47.8871V5.96655H41.8987V10.2028H47.4106V11.7297H41.8987V16.0331H48.056V17.56H40.1357V4.4375Z" fill="white"/>
<path d="M50.7178 4.4375H52.4136L58.9759 14.5062V4.4375H60.6804V17.56H58.9846L52.4244 7.49343V17.56H50.7178V4.4375Z" fill="white"/>
<path d="M66.517 5.96655H62.833V4.4375H71.9618V5.96655H68.2778V17.5622H66.517V5.96655Z" fill="white"/>
<path d="M75.8801 12.6112V17.56H74.1172V4.4375H78.308C81.091 4.4375 82.815 6.05101 82.815 8.52434C82.815 10.6252 81.5697 12.0957 79.5078 12.4986L83.0597 17.56H81.1105L77.6409 12.6112H75.8801ZM78.243 5.96655H75.8801V11.0843H78.243C80.006 11.0843 81.0282 10.0815 81.0282 8.5265C81.0282 6.97147 80.006 5.96871 78.243 5.96871V5.96655Z" fill="white"/>
<path d="M98.2523 10.9998C98.2523 14.8245 95.2419 17.7852 91.3521 17.7852C87.4624 17.7852 84.4541 14.8224 84.4541 10.9998C84.4541 7.17715 87.4624 4.21436 91.3521 4.21436C95.2419 4.21436 98.2523 7.17499 98.2523 10.9998ZM96.4612 10.9998C96.4612 8.06513 94.2023 5.76939 91.3521 5.76939C88.502 5.76939 86.243 8.06513 86.243 10.9998C86.243 13.9344 88.502 16.2301 91.3521 16.2301C94.2023 16.2301 96.4612 13.9322 96.4612 10.9998Z" fill="white"/>
<path d="M102.346 12.6112V17.56H100.585V4.4375H104.776C107.559 4.4375 109.283 6.05101 109.283 8.52434C109.283 10.9977 107.559 12.6112 104.776 12.6112H102.348H102.346ZM104.709 5.96655H102.346V11.0843H104.709C106.469 11.0843 107.492 10.0815 107.492 8.5265C107.492 6.97147 106.469 5.96871 104.709 5.96871V5.96655Z" fill="white"/>
<path d="M124.532 10.9998C124.532 14.8245 121.524 17.7852 117.634 17.7852C113.745 17.7852 110.736 14.8224 110.736 10.9998C110.736 7.17715 113.745 4.21436 117.634 4.21436C121.524 4.21436 124.532 7.17499 124.532 10.9998ZM122.741 10.9998C122.741 8.06513 120.482 5.76939 117.632 5.76939C114.782 5.76939 112.523 8.06513 112.523 10.9998C112.523 13.9344 114.782 16.2301 117.632 16.2301C120.482 16.2301 122.741 13.9322 122.741 10.9998Z" fill="white"/>
<path d="M126.862 4.4375H128.623V16.0331H134.501V17.56H126.862V4.4375Z" fill="white"/>
<path d="M138.493 4.4375V17.56H136.732V4.4375H138.493Z" fill="white"/>
<path d="M142.374 14.478C143.227 15.444 144.464 16.2301 145.805 16.2301C147.509 16.2301 148.709 15.3768 148.709 14.0644C148.709 12.8927 147.895 11.9939 145.588 11.5152C142.887 10.9521 141.529 9.63099 141.529 7.76625C141.529 5.66543 143.236 4.21436 145.692 4.21436C147.453 4.21436 148.813 4.87059 149.816 5.88201L148.765 7.14683C147.931 6.35848 146.976 5.76939 145.774 5.76939C144.332 5.76939 143.32 6.53824 143.32 7.64496C143.32 8.83398 144.295 9.605 146.329 10.062C149.317 10.7377 150.5 12.0675 150.5 14.0557C150.5 16.2301 148.739 17.7852 145.889 17.7852C144.061 17.7852 142.32 16.96 141.261 15.6757L142.376 14.4759L142.374 14.478Z" fill="white"/>
</svg>
