<svg width="12" height="15" viewBox="0 0 12 15" fill="none" xmlns="http://www.w3.org/2000/svg">
<path d="M4.7118 4.69036H7.10953V6.05083H11.8182V0H0V14.4444H11.8182V8.54264H7.10953V9.75409H4.7118V4.69036ZM8.26657 1.17299H10.6643V4.87624H8.26657V1.17299ZM8.26657 9.71723H10.6643V13.2731H8.26657V9.71723ZM7.11111 10.9287V13.2731H4.71338V10.9287H7.11111ZM3.55792 13.2731H1.15704V9.5682H3.55792V13.2731ZM3.55792 8.39521H1.15704V6.05083H3.55792V8.39521ZM3.55792 4.87784H1.15704V1.17299H3.55792V4.87624V4.87784ZM4.71338 3.51897V1.17299H7.11111V3.51737H4.71338V3.51897Z" fill="#C26441"/>
</svg>
