<svg width="22" height="22" viewBox="0 0 22 22" fill="none" xmlns="http://www.w3.org/2000/svg">
<path d="M5.28571 18.8571V18.1427C5.28571 15.7757 7.20449 13.8571 9.57143 13.8571H12.4286C14.7955 13.8571 16.7143 15.7757 16.7143 18.1427V18.8571M11 5.28571C9.42204 5.28571 8.14286 6.5649 8.14286 8.14286C8.14286 9.72081 9.42204 11 11 11C12.578 11 13.8571 9.72081 13.8571 8.14286C13.8571 6.5649 12.578 5.28571 11 5.28571ZM11 21C5.47715 21 1 16.5228 1 11C1 5.47715 5.47715 1 11 1C16.5228 1 21 5.47715 21 11C21 16.5228 16.5228 21 11 21Z" stroke="#B1B3B2" stroke-linecap="square"/>
</svg>
