<svg width="25" height="24" viewBox="0 0 25 24" fill="none" xmlns="http://www.w3.org/2000/svg">
<path d="M12.7012 15.375C14.9793 15.375 16.8262 13.5282 16.8262 11.25C16.8262 8.97183 14.9793 7.125 12.7012 7.125C10.423 7.125 8.57617 8.97183 8.57617 11.25C8.57617 13.5282 10.423 15.375 12.7012 15.375Z" fill="#CC6047"/>
<path d="M12.7012 2.25C10.7728 2.25 8.88775 2.82183 7.28437 3.89317C5.68099 4.96451 4.43131 6.48726 3.69335 8.26884C2.9554 10.0504 2.76231 12.0108 3.13852 13.9021C3.51473 15.7934 4.44332 17.5307 5.80689 18.8943C7.17045 20.2579 8.90773 21.1865 10.799 21.5627C12.6904 21.9389 14.6508 21.7458 16.4323 21.0078C18.2139 20.2699 19.7367 19.0202 20.808 17.4168C21.8793 15.8134 22.4512 13.9284 22.4512 12C22.4482 9.41504 21.4201 6.93679 19.5922 5.10894C17.7644 3.28109 15.2861 2.25293 12.7012 2.25ZM18.866 17.476C18.2639 16.6037 17.4832 15.8695 16.5756 15.3221C15.532 16.3188 14.1443 16.875 12.7012 16.875C11.258 16.875 9.8704 16.3188 8.82676 15.3221C7.91917 15.8695 7.13841 16.6037 6.53634 17.476C5.47931 16.2874 4.78842 14.8186 4.54685 13.2464C4.30528 11.6743 4.52334 10.0658 5.17477 8.6147C5.8262 7.16361 6.88322 5.93177 8.21854 5.06752C9.55387 4.20327 11.1106 3.74346 12.7012 3.74346C14.2918 3.74346 15.8485 4.20327 17.1838 5.06752C18.5191 5.93177 19.5761 7.16361 20.2276 8.6147C20.879 10.0658 21.097 11.6743 20.8555 13.2464C20.6139 14.8186 19.923 16.2874 18.866 17.476Z" fill="#CC6047"/>
</svg>
