<svg width="21" height="22" viewBox="0 0 21 22" fill="none" xmlns="http://www.w3.org/2000/svg">
<path d="M5.99932 12.4286L5.82169 12.2527L5.74932 12.3257V12.4286H5.99932ZM11.6586 6.71429L11.8362 6.53837C11.7892 6.49096 11.7253 6.46429 11.6586 6.46429C11.5918 6.46429 11.5279 6.49096 11.4809 6.53837L11.6586 6.71429ZM14.4882 9.57143L14.6658 9.74735C14.7623 9.64992 14.7623 9.49294 14.6658 9.39551L14.4882 9.57143ZM8.82893 15.2857V15.5357H8.9332L9.00657 15.4616L8.82893 15.2857ZM5.99932 15.2857H5.74932C5.74932 15.4238 5.86125 15.5357 5.99932 15.5357V15.2857ZM10.2437 20.75C4.91445 20.75 0.590088 16.3871 0.590088 11H0.0900879C0.0900879 16.6586 4.63376 21.25 10.2437 21.25V20.75ZM19.8974 11C19.8974 16.3871 15.573 20.75 10.2437 20.75V21.25C15.8537 21.25 20.3974 16.6586 20.3974 11H19.8974ZM10.2437 1.25C15.573 1.25 19.8974 5.61294 19.8974 11H20.3974C20.3974 5.34137 15.8537 0.75 10.2437 0.75V1.25ZM10.2437 0.75C4.63376 0.75 0.0900879 5.34137 0.0900879 11H0.590088C0.590088 5.61294 4.91445 1.25 10.2437 1.25V0.75ZM6.17695 12.6045L11.8362 6.8902L11.4809 6.53837L5.82169 12.2527L6.17695 12.6045ZM11.4809 6.8902L14.3105 9.74735L14.6658 9.39551L11.8362 6.53837L11.4809 6.8902ZM14.3105 9.39551L8.6513 15.1098L9.00657 15.4616L14.6658 9.74735L14.3105 9.39551ZM8.82893 15.0357H5.99932V15.5357H8.82893V15.0357ZM6.24932 15.2857V12.4286H5.74932V15.2857H6.24932ZM5.82169 12.6045L8.6513 15.4616L9.00657 15.1098L6.17695 12.2527L5.82169 12.6045Z" fill="#222722"/>
</svg>
