<svg width="18" height="18" viewBox="0 0 18 18" fill="none" xmlns="http://www.w3.org/2000/svg">
<path d="M14.1129 10.3793H10.0094V14.4828M16.4577 10.3793H17.6301M14.1129 17.4138H9.42323M12.9405 13.8966H17.0439V18M3.56116 4.51724H4.73358M12.9405 4.51724H14.1129M3.56116 13.8966H4.73358M1.80254 1H6.4922C7.1397 1 7.66461 1.52491 7.66461 2.17241V6.86207C7.66461 7.50958 7.1397 8.03448 6.4922 8.03448H1.80254C1.15503 8.03448 0.630127 7.50958 0.630127 6.86207V2.17241C0.630127 1.52491 1.15503 1 1.80254 1ZM11.1819 1H15.8715C16.519 1 17.0439 1.52491 17.0439 2.17241V6.86207C17.0439 7.50958 16.519 8.03448 15.8715 8.03448H11.1819C10.5343 8.03448 10.0094 7.50958 10.0094 6.86207V2.17241C10.0094 1.52491 10.5343 1 11.1819 1ZM1.80254 10.3793H6.4922C7.1397 10.3793 7.66461 10.9042 7.66461 11.5517V16.2414C7.66461 16.8889 7.1397 17.4138 6.4922 17.4138H1.80254C1.15503 17.4138 0.630127 16.8889 0.630127 16.2414V11.5517C0.630127 10.9042 1.15503 10.3793 1.80254 10.3793Z" stroke="#4C4C4C"/>
</svg>
