<svg width="25" height="23" viewBox="0 0 25 23" fill="none" xmlns="http://www.w3.org/2000/svg">
<path d="M11.193 20H1.60303C1.05303 20 0.603027 19.55 0.603027 19V4C0.603027 3.45 1.05303 3 1.60303 3H19.603C20.153 3 20.603 3.45 20.603 4V9.25" stroke="#222722" stroke-width="1.2" stroke-miterlimit="10" stroke-linecap="round" stroke-linejoin="round"/>
<path d="M0.603027 8H20.603" stroke="#222722" stroke-width="1.2" stroke-miterlimit="10" stroke-linecap="round" stroke-linejoin="round"/>
<path d="M4.60303 1V4" stroke="#222722" stroke-width="1.2" stroke-miterlimit="10" stroke-linecap="round" stroke-linejoin="round"/>
<path d="M16.603 1V4" stroke="#222722" stroke-width="1.2" stroke-miterlimit="10" stroke-linecap="round" stroke-linejoin="round"/>
<path d="M18.603 22C21.3645 22 23.603 19.7614 23.603 17C23.603 14.2386 21.3645 12 18.603 12C15.8416 12 13.603 14.2386 13.603 17C13.603 19.7614 15.8416 22 18.603 22Z" stroke="#222722" stroke-width="1.2" stroke-miterlimit="10" stroke-linecap="round" stroke-linejoin="round"/>
<path d="M18.603 14V17" stroke="#222722" stroke-width="1.2" stroke-miterlimit="10" stroke-linecap="round" stroke-linejoin="round"/>
<path d="M20.603 19L18.603 17" stroke="#222722" stroke-width="1.2" stroke-miterlimit="10" stroke-linecap="round" stroke-linejoin="round"/>
</svg>
