<svg width="25" height="24" viewBox="0 0 25 24" fill="none" xmlns="http://www.w3.org/2000/svg">
<path d="M22.0304 5.46969L19.0304 2.46969C18.9607 2.40004 18.878 2.34479 18.787 2.3071C18.696 2.2694 18.5985 2.25 18.5 2.25C18.4015 2.25 18.304 2.2694 18.213 2.3071C18.122 2.34479 18.0393 2.40004 17.9696 2.46969L8.96964 11.4697C8.829 11.6103 8.75 11.8011 8.75 12V15C8.75 15.1989 8.82902 15.3897 8.96967 15.5303C9.11032 15.671 9.30109 15.75 9.5 15.75H12.5C12.6989 15.75 12.8897 15.671 13.0304 15.5303L22.0304 6.53033C22.171 6.38968 22.25 6.19892 22.25 6.00001C22.25 5.8011 22.171 5.61034 22.0304 5.46969ZM19.25 7.18935L17.3107 5.25001L18.5 4.06067L20.4394 6.00001L19.25 7.18935Z" fill="#CC6047"/>
<path d="M20.9009 9.78113L14.091 16.5909C13.8826 16.8005 13.6346 16.9667 13.3615 17.0798C13.0884 17.1929 12.7956 17.2508 12.5 17.25H9.5C8.90346 17.2493 8.33155 17.0121 7.90974 16.5903C7.48793 16.1684 7.25066 15.5965 7.25 15V12C7.24919 11.7044 7.30702 11.4116 7.42013 11.1385C7.53325 10.8655 7.69941 10.6175 7.90899 10.4091L14.7207 3.59738C14.6881 3.43015 14.5986 3.27933 14.4676 3.17047C14.3365 3.06161 14.1718 3.00138 14.0015 3H5C4.6023 3.00039 4.22099 3.15855 3.93977 3.43977C3.65855 3.72099 3.50039 4.1023 3.5 4.5V19.5C3.50039 19.8977 3.65855 20.279 3.93977 20.5602C4.22099 20.8414 4.6023 20.9996 5 21H20C20.3977 20.9996 20.779 20.8414 21.0602 20.5602C21.3414 20.279 21.4996 19.8977 21.5 19.5V10.5007C21.4986 10.33 21.4382 10.1651 21.329 10.0339C21.2198 9.90272 21.0685 9.8134 20.9009 9.78113Z" fill="#CC6047"/>
</svg>
