<svg width="19" height="18" viewBox="0 0 19 18" fill="none" xmlns="http://www.w3.org/2000/svg">
<path d="M14.4426 0.474891L10.5087 4.40882L11.039 7.06047L13.6907 7.5908L17.6246 3.65687L17.625 3.65671C18.1119 4.80611 18.2284 6.07873 17.9581 7.29742C17.6879 8.51611 17.0445 9.62022 16.1173 10.4561C15.1902 11.2919 14.0256 11.818 12.7855 11.9609C11.5454 12.1039 10.2916 11.8566 9.19862 11.2536L9.19874 11.2534L3.94067 17.3408C3.51863 17.7624 2.94646 17.9991 2.34995 17.9989C1.75343 17.9987 1.1814 17.7617 0.759596 17.3399C0.337796 16.9181 0.100756 16.3461 0.100586 15.7495C0.100416 15.153 0.337131 14.5809 0.758691 14.1588L6.84601 8.90081L6.84588 8.90087C6.24287 7.80789 5.99564 6.5541 6.13858 5.31402C6.28152 4.07394 6.80754 2.90929 7.6434 1.98216C8.47926 1.05504 9.58338 0.411578 10.8021 0.141354C12.0208 -0.12887 13.2934 -0.0124153 14.4428 0.474509L14.4426 0.474891Z" fill="#CC6047"/>
</svg>
