<svg width="19" height="20" viewBox="0 0 19 20" fill="none" xmlns="http://www.w3.org/2000/svg">
<path d="M14.842 1.47514L10.9081 5.40906L11.4384 8.06071L14.0901 8.59104L18.024 4.65712L18.0244 4.65695C18.5113 5.80636 18.6278 7.07897 18.3575 8.29766C18.0873 9.51635 17.4439 10.6205 16.5167 11.4563C15.5896 12.2922 14.425 12.8182 13.1849 12.9612C11.9448 13.1041 10.691 12.8569 9.59804 12.2539L9.59815 12.2537L4.34008 18.341C3.91804 18.7626 3.34588 18.9993 2.74936 18.9991C2.15284 18.999 1.58081 18.7619 1.15901 18.3401C0.73721 17.9183 0.50017 17.3463 0.5 16.7498C0.49983 16.1533 0.736545 15.5811 1.1581 15.1591L7.24542 9.90105L7.24529 9.90112C6.64229 8.80813 6.39505 7.55434 6.53799 6.31427C6.68094 5.07419 7.20695 3.90953 8.04281 2.98241C8.87867 2.05528 9.98279 1.41182 11.2015 1.1416C12.4202 0.871374 13.6928 0.987829 14.8422 1.47475L14.842 1.47514Z" stroke="#A4A4A4" stroke-linecap="round" stroke-linejoin="round"/>
</svg>
